<svg xmlns="http://www.w3.org/2000/svg" xmlns:xlink="http://www.w3.org/1999/xlink" width="500" zoomAndPan="magnify" viewBox="0 0 375 374.999991" height="500" preserveAspectRatio="xMidYMid meet" version="1.0"><defs><clipPath id="de54cac287"><path d="M 0 3.046875 L 375 3.046875 L 375 372.046875 L 0 372.046875 Z M 0 3.046875 " clip-rule="nonzero"/></clipPath></defs><path fill="#ffde59" d="M 284.832031 187.546875 C 284.832031 189.117188 284.792969 190.683594 284.714844 192.25 C 284.636719 193.816406 284.519531 195.378906 284.363281 196.941406 C 284.207031 198.5 284.011719 200.058594 283.777344 201.609375 C 283.542969 203.160156 283.269531 204.707031 282.960938 206.242188 C 282.648438 207.78125 282.300781 209.3125 281.914062 210.832031 C 281.527344 212.355469 281.101562 213.867188 280.640625 215.367188 C 280.175781 216.867188 279.675781 218.355469 279.140625 219.835938 C 278.605469 221.3125 278.03125 222.773438 277.421875 224.222656 C 276.8125 225.671875 276.167969 227.105469 275.484375 228.523438 C 274.804688 229.941406 274.089844 231.339844 273.339844 232.726562 C 272.585938 234.109375 271.800781 235.472656 270.984375 236.816406 C 270.164062 238.164062 269.3125 239.488281 268.425781 240.792969 C 267.542969 242.097656 266.625 243.378906 265.675781 244.636719 C 264.726562 245.898438 263.75 247.132812 262.738281 248.347656 C 261.726562 249.558594 260.6875 250.746094 259.617188 251.910156 C 258.546875 253.070312 257.449219 254.207031 256.324219 255.316406 C 255.195312 256.425781 254.042969 257.503906 252.863281 258.558594 C 251.683594 259.613281 250.476562 260.636719 249.246094 261.632812 C 248.015625 262.625 246.757812 263.589844 245.480469 264.523438 C 244.199219 265.460938 242.898438 266.363281 241.574219 267.234375 C 240.25 268.105469 238.902344 268.945312 237.539062 269.75 C 236.171875 270.558594 234.785156 271.328125 233.382812 272.070312 C 231.976562 272.808594 230.554688 273.511719 229.113281 274.183594 C 227.675781 274.855469 226.21875 275.488281 224.746094 276.089844 C 223.273438 276.691406 221.789062 277.253906 220.289062 277.785156 C 218.789062 278.3125 217.277344 278.804688 215.753906 279.257812 C 214.230469 279.714844 212.695312 280.132812 211.148438 280.511719 C 209.605469 280.894531 208.050781 281.238281 206.488281 281.542969 C 204.925781 281.851562 203.355469 282.117188 201.78125 282.347656 C 200.207031 282.578125 198.625 282.769531 197.039062 282.925781 C 195.453125 283.078125 193.867188 283.191406 192.277344 283.269531 C 190.683594 283.347656 189.09375 283.386719 187.5 283.386719 C 185.90625 283.386719 184.316406 283.347656 182.722656 283.269531 C 181.132812 283.191406 179.546875 283.078125 177.960938 282.925781 C 176.375 282.769531 174.792969 282.578125 173.21875 282.347656 C 171.644531 282.117188 170.074219 281.851562 168.511719 281.542969 C 166.949219 281.238281 165.394531 280.894531 163.851562 280.511719 C 162.304688 280.132812 160.769531 279.714844 159.246094 279.257812 C 157.722656 278.804688 156.210938 278.3125 154.710938 277.785156 C 153.210938 277.253906 151.726562 276.691406 150.253906 276.089844 C 148.78125 275.488281 147.324219 274.855469 145.886719 274.183594 C 144.445312 273.511719 143.023438 272.808594 141.617188 272.070312 C 140.214844 271.328125 138.828125 270.558594 137.460938 269.75 C 136.097656 268.945312 134.75 268.105469 133.425781 267.234375 C 132.101562 266.363281 130.800781 265.460938 129.519531 264.523438 C 128.242188 263.589844 126.984375 262.625 125.753906 261.632812 C 124.523438 260.636719 123.316406 259.613281 122.136719 258.558594 C 120.957031 257.503906 119.804688 256.425781 118.675781 255.316406 C 117.550781 254.207031 116.453125 253.070312 115.382812 251.910156 C 114.3125 250.746094 113.273438 249.558594 112.261719 248.347656 C 111.25 247.132812 110.273438 245.898438 109.324219 244.636719 C 108.375 243.378906 107.457031 242.097656 106.574219 240.792969 C 105.6875 239.488281 104.835938 238.164062 104.015625 236.816406 C 103.199219 235.472656 102.414062 234.109375 101.660156 232.726562 C 100.910156 231.339844 100.195312 229.941406 99.515625 228.523438 C 98.832031 227.105469 98.1875 225.671875 97.578125 224.222656 C 96.96875 222.773438 96.394531 221.3125 95.859375 219.835938 C 95.324219 218.355469 94.824219 216.867188 94.359375 215.367188 C 93.898438 213.867188 93.472656 212.355469 93.085938 210.832031 C 92.699219 209.3125 92.351562 207.78125 92.039062 206.242188 C 91.730469 204.707031 91.457031 203.160156 91.222656 201.609375 C 90.988281 200.058594 90.792969 198.5 90.636719 196.941406 C 90.480469 195.378906 90.363281 193.816406 90.285156 192.25 C 90.207031 190.683594 90.167969 189.117188 90.167969 187.546875 C 90.167969 185.976562 90.207031 184.410156 90.285156 182.84375 C 90.363281 181.277344 90.480469 179.714844 90.636719 178.152344 C 90.792969 176.59375 90.988281 175.035156 91.222656 173.484375 C 91.457031 171.933594 91.730469 170.386719 92.039062 168.851562 C 92.351562 167.3125 92.699219 165.78125 93.085938 164.261719 C 93.472656 162.738281 93.898438 161.226562 94.359375 159.726562 C 94.824219 158.226562 95.324219 156.738281 95.859375 155.257812 C 96.394531 153.78125 96.96875 152.320312 97.578125 150.871094 C 98.1875 149.421875 98.832031 147.988281 99.515625 146.570312 C 100.195312 145.152344 100.910156 143.753906 101.660156 142.367188 C 102.414062 140.984375 103.199219 139.621094 104.015625 138.277344 C 104.835938 136.929688 105.6875 135.605469 106.574219 134.300781 C 107.457031 132.996094 108.375 131.714844 109.324219 130.457031 C 110.273438 129.195312 111.25 127.960938 112.261719 126.746094 C 113.273438 125.535156 114.3125 124.347656 115.382812 123.183594 C 116.453125 122.023438 117.550781 120.886719 118.675781 119.777344 C 119.804688 118.667969 120.957031 117.589844 122.136719 116.535156 C 123.316406 115.480469 124.523438 114.457031 125.753906 113.460938 C 126.984375 112.46875 128.242188 111.503906 129.519531 110.566406 C 130.800781 109.632812 132.101562 108.730469 133.425781 107.859375 C 134.75 106.988281 136.097656 106.148438 137.460938 105.34375 C 138.828125 104.535156 140.214844 103.765625 141.617188 103.023438 C 143.023438 102.285156 144.445312 101.582031 145.886719 100.910156 C 147.324219 100.238281 148.78125 99.601562 150.253906 99.003906 C 151.726562 98.402344 153.210938 97.839844 154.710938 97.308594 C 156.210938 96.78125 157.722656 96.289062 159.246094 95.835938 C 160.769531 95.378906 162.304688 94.960938 163.851562 94.582031 C 165.394531 94.199219 166.949219 93.855469 168.511719 93.550781 C 170.074219 93.242188 171.644531 92.976562 173.21875 92.746094 C 174.792969 92.515625 176.375 92.324219 177.960938 92.167969 C 179.546875 92.015625 181.132812 91.898438 182.722656 91.824219 C 184.316406 91.746094 185.90625 91.707031 187.5 91.707031 C 189.09375 91.707031 190.683594 91.746094 192.277344 91.824219 C 193.867188 91.898438 195.453125 92.015625 197.039062 92.167969 C 198.625 92.324219 200.207031 92.515625 201.78125 92.746094 C 203.355469 92.976562 204.925781 93.242188 206.488281 93.550781 C 208.050781 93.855469 209.605469 94.199219 211.148438 94.582031 C 212.695312 94.960938 214.230469 95.378906 215.753906 95.835938 C 217.277344 96.289062 218.789062 96.78125 220.289062 97.308594 C 221.789062 97.839844 223.273438 98.402344 224.746094 99.003906 C 226.21875 99.601562 227.675781 100.238281 229.113281 100.910156 C 230.554688 101.582031 231.976562 102.285156 233.382812 103.023438 C 234.785156 103.765625 236.171875 104.535156 237.539062 105.34375 C 238.902344 106.148438 240.25 106.988281 241.574219 107.859375 C 242.898438 108.730469 244.199219 109.632812 245.480469 110.566406 C 246.757812 111.503906 248.015625 112.46875 249.246094 113.460938 C 250.476562 114.457031 251.683594 115.480469 252.863281 116.535156 C 254.042969 117.589844 255.195312 118.667969 256.324219 119.777344 C 257.449219 120.886719 258.546875 122.023438 259.617188 123.183594 C 260.6875 124.347656 261.726562 125.535156 262.738281 126.746094 C 263.75 127.960938 264.726562 129.195312 265.675781 130.457031 C 266.625 131.714844 267.542969 132.996094 268.425781 134.300781 C 269.3125 135.605469 270.164062 136.929688 270.984375 138.277344 C 271.800781 139.621094 272.585938 140.984375 273.339844 142.367188 C 274.089844 143.753906 274.804688 145.152344 275.484375 146.570312 C 276.167969 147.988281 276.8125 149.421875 277.421875 150.871094 C 278.03125 152.320312 278.605469 153.78125 279.140625 155.257812 C 279.675781 156.738281 280.175781 158.226562 280.640625 159.726562 C 281.101562 161.226562 281.527344 162.738281 281.914062 164.261719 C 282.300781 165.78125 282.648438 167.3125 282.960938 168.851562 C 283.269531 170.386719 283.542969 171.933594 283.777344 173.484375 C 284.011719 175.035156 284.207031 176.59375 284.363281 178.152344 C 284.519531 179.714844 284.636719 181.277344 284.714844 182.84375 C 284.792969 184.410156 284.832031 185.976562 284.832031 187.546875 Z M 284.832031 187.546875 " fill-opacity="1" fill-rule="nonzero"/><g clip-path="url(#de54cac287)"><path fill="#ffde59" d="M 187.5 67.949219 C 184.671875 67.949219 182.445312 65.726562 182.445312 62.894531 L 182.445312 8.101562 C 182.445312 5.269531 184.671875 3.046875 187.5 3.046875 C 190.328125 3.046875 192.554688 5.269531 192.554688 8.101562 L 192.554688 62.894531 C 192.554688 65.625 190.230469 67.949219 187.5 67.949219 Z M 192.554688 366.992188 L 192.554688 312.199219 C 192.554688 309.367188 190.328125 307.144531 187.5 307.144531 C 184.671875 307.144531 182.445312 309.367188 182.445312 312.199219 L 182.445312 366.992188 C 182.445312 369.824219 184.671875 372.046875 187.5 372.046875 C 190.328125 372.046875 192.554688 369.824219 192.554688 366.992188 Z M 65.8125 187.546875 C 65.8125 184.714844 63.589844 182.492188 60.757812 182.492188 L 5.167969 182.492188 C 2.339844 182.492188 0.117188 184.714844 0.117188 187.546875 C 0.117188 190.378906 2.339844 192.601562 5.167969 192.601562 L 60.757812 192.601562 C 63.589844 192.601562 65.8125 190.378906 65.8125 187.546875 Z M 374.882812 187.546875 C 374.882812 184.714844 372.660156 182.492188 369.832031 182.492188 L 314.242188 182.492188 C 311.410156 182.492188 309.1875 184.714844 309.1875 187.546875 C 309.1875 190.378906 311.410156 192.601562 314.242188 192.601562 L 369.832031 192.601562 C 372.660156 192.601562 374.882812 190.378906 374.882812 187.546875 Z M 101.488281 102.929688 C 103.410156 100.90625 103.410156 97.773438 101.386719 95.75 L 62.070312 57.03125 C 60.050781 55.109375 56.917969 55.109375 54.894531 57.132812 C 52.976562 59.15625 52.976562 62.289062 54.996094 64.3125 L 94.3125 103.03125 C 95.324219 104.042969 96.535156 104.445312 97.851562 104.445312 C 99.164062 104.445312 100.480469 103.941406 101.488281 102.929688 Z M 320.003906 318.0625 C 321.921875 316.039062 321.921875 312.90625 319.902344 310.882812 L 280.585938 272.164062 C 278.5625 270.242188 275.429688 270.242188 273.410156 272.265625 C 271.488281 274.289062 271.488281 277.421875 273.511719 279.441406 L 312.828125 318.164062 C 313.835938 319.171875 315.050781 319.578125 316.363281 319.578125 C 317.679688 319.578125 318.992188 319.074219 320.003906 318.0625 Z M 62.070312 318.0625 L 101.386719 279.34375 C 103.410156 277.421875 103.410156 274.1875 101.488281 272.164062 C 99.570312 270.140625 96.335938 270.140625 94.3125 272.0625 L 54.996094 310.882812 C 52.976562 312.804688 52.976562 316.039062 54.894531 318.0625 C 55.90625 319.074219 57.21875 319.578125 58.535156 319.578125 C 59.847656 319.578125 61.0625 319.074219 62.070312 318.0625 Z M 280.585938 103.03125 L 319.902344 64.3125 C 321.921875 62.390625 321.921875 59.15625 320.003906 57.132812 C 318.082031 55.109375 314.847656 55.109375 312.828125 57.03125 L 273.511719 95.75 C 271.488281 97.671875 271.488281 100.90625 273.410156 102.929688 C 274.421875 103.941406 275.734375 104.445312 277.046875 104.445312 C 278.363281 104.445312 279.675781 103.941406 280.585938 103.03125 Z M 140.804688 76.746094 C 143.332031 75.632812 144.546875 72.703125 143.535156 70.175781 L 133.628906 46.621094 C 132.519531 44.09375 129.585938 42.878906 126.957031 43.890625 C 124.433594 45 123.21875 47.933594 124.230469 50.460938 L 134.136719 74.015625 C 134.945312 75.9375 136.863281 77.148438 138.785156 77.148438 C 139.59375 77.148438 140.199219 77.050781 140.804688 76.746094 Z M 247.941406 331.304688 C 250.464844 330.191406 251.679688 327.261719 250.667969 324.734375 L 240.765625 301.179688 C 239.652344 298.652344 236.722656 297.4375 234.09375 298.449219 C 231.566406 299.5625 230.355469 302.492188 231.363281 305.019531 L 241.269531 328.574219 C 242.078125 330.496094 244 331.710938 245.917969 331.710938 C 246.625 331.710938 247.332031 331.507812 247.941406 331.304688 Z M 48.125 249.820312 L 72.078125 240.015625 C 74.707031 239.003906 75.917969 235.972656 74.808594 233.445312 C 73.796875 230.816406 70.765625 229.601562 68.238281 230.714844 L 44.285156 240.519531 C 41.65625 241.53125 40.441406 244.566406 41.554688 247.09375 C 42.363281 249.011719 44.285156 250.226562 46.203125 250.226562 C 46.808594 250.226562 47.519531 250.125 48.125 249.820312 Z M 306.660156 144.480469 L 330.617188 134.671875 C 333.242188 133.664062 334.457031 130.628906 333.34375 128.101562 C 332.332031 125.472656 329.300781 124.261719 326.773438 125.371094 L 302.820312 135.179688 C 300.191406 136.191406 298.980469 139.222656 300.09375 141.75 C 300.902344 143.671875 302.820312 144.882812 304.742188 144.882812 C 305.449219 144.785156 306.054688 144.683594 306.660156 144.480469 Z M 240.765625 74.117188 L 250.667969 50.5625 C 251.78125 48.035156 250.566406 45 247.941406 43.992188 C 245.3125 42.878906 242.382812 44.09375 241.269531 46.71875 L 231.363281 70.277344 C 230.253906 72.804688 231.464844 75.835938 234.09375 76.847656 C 234.699219 77.148438 235.40625 77.25 236.011719 77.25 C 238.035156 77.148438 239.957031 76.039062 240.765625 74.117188 Z M 133.628906 328.574219 L 143.535156 305.019531 C 144.644531 302.492188 143.433594 299.460938 140.804688 298.449219 C 138.179688 297.335938 135.246094 298.550781 134.136719 301.179688 L 124.230469 324.734375 C 123.117188 327.261719 124.332031 330.292969 126.957031 331.304688 C 127.566406 331.609375 128.273438 331.710938 128.878906 331.710938 C 130.902344 331.710938 132.820312 330.496094 133.628906 328.574219 Z M 74.90625 141.648438 C 75.917969 139.019531 74.707031 136.089844 72.179688 135.078125 L 48.226562 125.273438 C 45.597656 124.261719 42.667969 125.472656 41.65625 128 C 40.644531 130.628906 41.859375 133.5625 44.382812 134.574219 L 68.339844 144.378906 C 68.945312 144.683594 69.652344 144.785156 70.257812 144.785156 C 72.179688 144.785156 74.097656 143.570312 74.90625 141.648438 Z M 333.445312 247.09375 C 334.457031 244.464844 333.242188 241.53125 330.714844 240.519531 L 306.660156 230.714844 C 304.035156 229.703125 301.101562 230.917969 300.09375 233.445312 C 299.082031 236.074219 300.292969 239.003906 302.820312 240.015625 L 326.773438 249.820312 C 327.382812 250.125 328.089844 250.226562 328.695312 250.226562 C 330.714844 250.226562 332.636719 249.011719 333.445312 247.09375 Z M 333.445312 247.09375 " fill-opacity="1" fill-rule="nonzero"/></g></svg>